<?xml version="1.0" standalone="no"?><!-- Generator: Gravit.io --><svg xmlns="http://www.w3.org/2000/svg" xmlns:xlink="http://www.w3.org/1999/xlink" style="isolation:isolate" viewBox="0 0 1609 318" width="1609" height="318"><defs><clipPath id="_clipPath_NFMpLQ43Nw2P4Yot9KIlV2Kcom62ZUIB"><rect width="1609" height="318"/></clipPath></defs><g clip-path="url(#_clipPath_NFMpLQ43Nw2P4Yot9KIlV2Kcom62ZUIB)"><path d=" M 205.694 253.663 C 208.616 245.081 203.274 237.361 195.329 229.282 C 156.124 189.163 115.686 150.324 74.014 112.759 C 68.518 106.756 60.182 104.235 52.28 106.185 C 26.437 111.529 -2.83 83.264 0.321 57.012 C 0.96 51.807 3.289 51.074 7.49 53.816 C 13.563 57.742 19.68 61.623 25.753 65.322 C 37.989 72.674 47.213 70.298 55.294 57.695 C 63.376 45.094 62.645 33.863 51.368 25.736 C 45.889 21.763 40.044 18.248 34.291 14.687 C 27.625 10.35 29.132 7.105 35.798 5.097 C 53.925 -0.335 71.229 -0.472 87.119 12.311 C 102.049 24.273 107.985 39.113 103.418 57.971 C 101.754 64.186 103.795 70.804 108.669 75.002 C 150.447 118.377 194.142 159.651 238.613 200.199 C 242.852 204.219 248.963 205.569 254.504 203.713 C 285.825 197.457 306.372 223.757 308.655 250.56 C 309.202 256.951 307.011 259.19 300.983 255.126 C 294.958 251.063 288.793 247.318 282.72 243.664 C 271.489 236.998 263.498 239.098 255.006 250.331 C 246.514 261.562 246.33 274.393 255.507 281.927 C 261.639 286.558 268.028 290.842 274.639 294.757 C 281.167 299.004 280.392 301.651 273.36 304.436 C 239.162 317.768 198.891 292.015 205.694 253.663 Z " fill="rgb(0,174,158)"/><path d=" M 158.026 241.197 C 165.773 241.176 173.471 239.976 180.856 237.635 C 190.718 235.308 197.476 240.24 196.927 250.422 C 196.518 258.502 198.891 270.785 196.015 273.845 C 185.604 284.894 189.622 299.686 183.002 310.369 C 178.162 318.178 166.839 316.808 157.89 316.944 C 132.503 317.356 129.535 314.845 127.207 290.28 C 127.257 285.68 124.318 281.579 119.947 280.145 C 115.214 278.83 110.625 277.038 106.249 274.802 C 95.474 267.907 86.616 268.182 78.854 279.368 C 73.33 286.993 65.933 287.13 58.81 281.375 C 52.749 276.687 47.07 271.528 41.825 265.943 C 28.126 250.786 28.126 247.679 42.326 232.476 C 47.047 228.677 48.185 221.953 44.975 216.816 C 42.365 212.554 40.381 207.942 39.085 203.117 C 36.619 191.29 29.953 186.497 18.036 188.003 C 7.49 189.327 1.964 183.984 1.28 173.439 C 0.404 167.194 -0.024 160.891 0.001 154.582 C 2.01 129.561 5.572 126.274 24.52 128.694 C 28.126 129.151 33.241 128.694 34.108 125.224 C 36.666 114.86 44.61 116.548 51.87 115.544 C 69.175 113.169 80.452 124.677 76.754 141.798 C 65.658 192.161 105.244 241.197 158.026 241.197 Z " fill="rgb(0,102,172)"/><path d=" M 314.225 159.47 C 314.411 165.898 313.626 172.316 311.896 178.509 C 310.892 182.207 309.386 186.318 305.688 186.636 C 286.557 188.28 268.247 196.638 248.933 194.719 C 241.747 194.625 235.997 188.723 236.09 181.535 C 236.106 180.262 236.312 178.995 236.697 177.778 C 249.207 113.355 198.343 63.997 134.604 79.11 C 125.153 81.347 122.505 75.868 118.212 71.394 C 109.343 61.803 109.927 46.839 119.517 37.97 C 120.341 37.21 121.217 36.507 122.139 35.869 C 128.85 31.807 127.618 25.825 127.116 20.301 C 126.02 7.7 131.683 1.627 143.873 0.805 C 150.583 -0.006 157.353 -0.205 164.1 0.213 C 183.185 2.356 188.892 4.549 186.563 23.77 C 185.323 30.03 189.391 36.108 195.649 37.347 C 195.892 37.395 196.134 37.436 196.38 37.47 C 200.343 38.428 204.144 39.967 207.657 42.035 C 218.342 48.837 227.199 48.837 235.281 37.56 C 241.307 29.295 248.978 30.252 256.512 36.234 C 261.814 40.433 266.804 45.011 271.442 49.933 C 285.825 65.73 285.963 68.88 271.854 84.495 C 267.327 88.495 266.291 95.152 269.388 100.339 C 272.519 106.816 275.249 113.48 277.561 120.292 C 278.874 125.199 283.26 128.653 288.337 128.783 C 312.809 131.665 314.27 133.488 314.225 159.47 Z " fill="rgb(0,135,116)"/><path d=" M 989.055 119.405 L 1015.735 32.84 L 1030.235 32.84 L 995.87 134.34 L 981.37 134.34 L 955.125 50.53 L 928.445 134.34 L 914.09 134.34 L 879.87 32.84 L 894.805 32.84 L 921.63 119.405 L 948.31 32.84 L 962.23 32.84 L 989.055 119.405 Z  M 1075.91 57.2 L 1075.91 57.2 Q 1087.365 57.2 1096.282 62.13 L 1096.282 62.13 L 1096.282 62.13 Q 1105.2 67.06 1110.202 75.833 L 1110.202 75.833 L 1110.202 75.833 Q 1115.205 84.605 1115.205 95.915 L 1115.205 95.915 L 1115.205 95.915 Q 1115.205 107.225 1110.202 116.07 L 1110.202 116.07 L 1110.202 116.07 Q 1105.2 124.915 1096.282 129.845 L 1096.282 129.845 L 1096.282 129.845 Q 1087.365 134.775 1075.91 134.775 L 1075.91 134.775 L 1075.91 134.775 Q 1064.31 134.775 1055.393 129.845 L 1055.393 129.845 L 1055.393 129.845 Q 1046.475 124.915 1041.472 116.143 L 1041.472 116.143 L 1041.472 116.143 Q 1036.47 107.37 1036.47 95.915 L 1036.47 95.915 L 1036.47 95.915 Q 1036.47 84.605 1041.472 75.833 L 1041.472 75.833 L 1041.472 75.833 Q 1046.475 67.06 1055.393 62.13 L 1055.393 62.13 L 1055.393 62.13 Q 1064.31 57.2 1075.91 57.2 L 1075.91 57.2 Z  M 1075.91 68.945 L 1075.91 68.945 Q 1068.37 68.945 1062.498 72.425 L 1062.498 72.425 L 1062.498 72.425 Q 1056.625 75.905 1053.363 82.068 L 1053.363 82.068 L 1053.363 82.068 Q 1050.1 88.23 1050.1 96.06 L 1050.1 96.06 L 1050.1 96.06 Q 1050.1 104.035 1053.363 110.27 L 1053.363 110.27 L 1053.363 110.27 Q 1056.625 116.505 1062.498 119.913 L 1062.498 119.913 L 1062.498 119.913 Q 1068.37 123.32 1075.91 123.32 L 1075.91 123.32 L 1075.91 123.32 Q 1083.305 123.32 1089.177 119.913 L 1089.177 119.913 L 1089.177 119.913 Q 1095.05 116.505 1098.313 110.27 L 1098.313 110.27 L 1098.313 110.27 Q 1101.575 104.035 1101.575 96.06 L 1101.575 96.06 L 1101.575 96.06 Q 1101.575 88.23 1098.313 82.068 L 1098.313 82.068 L 1098.313 82.068 Q 1095.05 75.905 1089.177 72.425 L 1089.177 72.425 L 1089.177 72.425 Q 1083.305 68.945 1075.91 68.945 L 1075.91 68.945 Z  M 1147.54 74.165 L 1147.54 74.165 Q 1151.31 65.9 1158.27 61.623 L 1158.27 61.623 L 1158.27 61.623 Q 1165.23 57.345 1174.8 57.2 L 1174.8 57.2 L 1174.8 70.25 L 1174.8 70.25 Q 1163.055 69.815 1155.805 76.34 L 1155.805 76.34 L 1155.805 76.34 Q 1148.555 82.865 1147.54 93.885 L 1147.54 93.885 L 1147.54 134.34 L 1134.055 134.34 L 1134.055 57.635 L 1147.54 57.635 L 1147.54 74.165 Z  M 1259.335 134.34 L 1243.095 134.34 L 1218.59 97.075 L 1203.655 112.59 L 1203.655 134.34 L 1190.17 134.34 L 1190.17 26.75 L 1203.655 26.75 L 1203.655 95.335 L 1240.775 57.635 L 1256.58 57.635 L 1228.015 87.36 L 1259.335 134.34 Z  M 1315.74 74.6 L 1315.74 74.6 Q 1310.955 71.7 1305.228 69.96 L 1305.228 69.96 L 1305.228 69.96 Q 1299.5 68.22 1294.28 68.22 L 1294.28 68.22 L 1294.28 68.22 Q 1288.19 68.22 1284.492 70.468 L 1284.492 70.468 L 1284.492 70.468 Q 1280.795 72.715 1280.795 77.355 L 1280.795 77.355 L 1280.795 77.355 Q 1280.795 81.995 1284.927 84.388 L 1284.927 84.388 L 1284.927 84.388 Q 1289.06 86.78 1297.47 89.245 L 1297.47 89.245 L 1297.47 89.245 Q 1305.445 91.565 1310.52 93.885 L 1310.52 93.885 L 1310.52 93.885 Q 1315.595 96.205 1319.147 100.7 L 1319.147 100.7 L 1319.147 100.7 Q 1322.7 105.195 1322.7 112.59 L 1322.7 112.59 L 1322.7 112.59 Q 1322.7 123.465 1314.507 129.12 L 1314.507 129.12 L 1314.507 129.12 Q 1306.315 134.775 1294.135 134.775 L 1294.135 134.775 L 1294.135 134.775 Q 1285.58 134.775 1277.532 132.02 L 1277.532 132.02 L 1277.532 132.02 Q 1269.485 129.265 1263.975 124.19 L 1263.975 124.19 L 1269.05 114.33 L 1269.05 114.33 Q 1273.835 118.68 1280.867 121.29 L 1280.867 121.29 L 1280.867 121.29 Q 1287.9 123.9 1294.57 123.9 L 1294.57 123.9 L 1294.57 123.9 Q 1301.24 123.9 1305.3 121.435 L 1305.3 121.435 L 1305.3 121.435 Q 1309.36 118.97 1309.36 113.895 L 1309.36 113.895 L 1309.36 113.895 Q 1309.36 108.675 1305.083 106.065 L 1305.083 106.065 L 1305.083 106.065 Q 1300.805 103.455 1292.105 100.845 L 1292.105 100.845 L 1292.105 100.845 Q 1284.42 98.67 1279.563 96.423 L 1279.563 96.423 L 1279.563 96.423 Q 1274.705 94.175 1271.298 89.825 L 1271.298 89.825 L 1271.298 89.825 Q 1267.89 85.475 1267.89 78.515 L 1267.89 78.515 L 1267.89 78.515 Q 1267.89 67.785 1275.72 62.42 L 1275.72 62.42 L 1275.72 62.42 Q 1283.55 57.055 1295.295 57.055 L 1295.295 57.055 L 1295.295 57.055 Q 1302.255 57.055 1308.998 59.013 L 1308.998 59.013 L 1308.998 59.013 Q 1315.74 60.97 1320.67 64.305 L 1320.67 64.305 L 1315.74 74.6 Z  M 1384.035 57.2 L 1384.035 57.2 Q 1397.52 57.2 1405.205 65.103 L 1405.205 65.103 L 1405.205 65.103 Q 1412.89 73.005 1412.89 86.925 L 1412.89 86.925 L 1412.89 134.34 L 1399.405 134.34 L 1399.405 90.55 L 1399.405 90.55 Q 1399.405 80.835 1393.968 75.398 L 1393.968 75.398 L 1393.968 75.398 Q 1388.53 69.96 1378.96 69.96 L 1378.96 69.96 L 1378.96 69.96 Q 1367.795 70.105 1361.27 77.5 L 1361.27 77.5 L 1361.27 77.5 Q 1354.745 84.895 1354.745 96.64 L 1354.745 96.64 L 1354.745 134.34 L 1341.26 134.34 L 1341.26 26.75 L 1354.745 26.75 L 1354.745 74.165 L 1354.745 74.165 Q 1362.43 57.49 1384.035 57.2 L 1384.035 57.2 Z  M 1468.86 57.2 L 1468.86 57.2 Q 1480.315 57.2 1489.232 62.13 L 1489.232 62.13 L 1489.232 62.13 Q 1498.15 67.06 1503.153 75.833 L 1503.153 75.833 L 1503.153 75.833 Q 1508.155 84.605 1508.155 95.915 L 1508.155 95.915 L 1508.155 95.915 Q 1508.155 107.225 1503.153 116.07 L 1503.153 116.07 L 1503.153 116.07 Q 1498.15 124.915 1489.232 129.845 L 1489.232 129.845 L 1489.232 129.845 Q 1480.315 134.775 1468.86 134.775 L 1468.86 134.775 L 1468.86 134.775 Q 1457.26 134.775 1448.343 129.845 L 1448.343 129.845 L 1448.343 129.845 Q 1439.425 124.915 1434.423 116.143 L 1434.423 116.143 L 1434.423 116.143 Q 1429.42 107.37 1429.42 95.915 L 1429.42 95.915 L 1429.42 95.915 Q 1429.42 84.605 1434.423 75.833 L 1434.423 75.833 L 1434.423 75.833 Q 1439.425 67.06 1448.343 62.13 L 1448.343 62.13 L 1448.343 62.13 Q 1457.26 57.2 1468.86 57.2 L 1468.86 57.2 Z  M 1468.86 68.945 L 1468.86 68.945 Q 1461.32 68.945 1455.447 72.425 L 1455.447 72.425 L 1455.447 72.425 Q 1449.575 75.905 1446.312 82.068 L 1446.312 82.068 L 1446.312 82.068 Q 1443.05 88.23 1443.05 96.06 L 1443.05 96.06 L 1443.05 96.06 Q 1443.05 104.035 1446.312 110.27 L 1446.312 110.27 L 1446.312 110.27 Q 1449.575 116.505 1455.447 119.913 L 1455.447 119.913 L 1455.447 119.913 Q 1461.32 123.32 1468.86 123.32 L 1468.86 123.32 L 1468.86 123.32 Q 1476.255 123.32 1482.127 119.913 L 1482.127 119.913 L 1482.127 119.913 Q 1488 116.505 1491.262 110.27 L 1491.262 110.27 L 1491.262 110.27 Q 1494.525 104.035 1494.525 96.06 L 1494.525 96.06 L 1494.525 96.06 Q 1494.525 88.23 1491.262 82.068 L 1491.262 82.068 L 1491.262 82.068 Q 1488 75.905 1482.127 72.425 L 1482.127 72.425 L 1482.127 72.425 Q 1476.255 68.945 1468.86 68.945 L 1468.86 68.945 Z  M 1569.635 57.2 L 1569.635 57.2 Q 1580.365 57.2 1588.775 62.13 L 1588.775 62.13 L 1588.775 62.13 Q 1597.185 67.06 1601.825 75.905 L 1601.825 75.905 L 1601.825 75.905 Q 1606.465 84.75 1606.465 96.205 L 1606.465 96.205 L 1606.465 96.205 Q 1606.465 107.515 1601.898 116.288 L 1601.898 116.288 L 1601.898 116.288 Q 1597.33 125.06 1588.992 129.918 L 1588.992 129.918 L 1588.992 129.918 Q 1580.655 134.775 1569.925 134.775 L 1569.925 134.775 L 1569.925 134.775 Q 1560.21 134.775 1552.815 130.715 L 1552.815 130.715 L 1552.815 130.715 Q 1545.42 126.655 1541.215 119.115 L 1541.215 119.115 L 1541.215 162.47 L 1527.73 162.47 L 1527.73 57.635 L 1541.215 57.635 L 1541.215 72.86 L 1541.215 72.86 Q 1545.42 65.32 1552.742 61.26 L 1552.742 61.26 L 1552.742 61.26 Q 1560.065 57.2 1569.635 57.2 L 1569.635 57.2 Z  M 1567.025 123.03 L 1567.025 123.03 Q 1574.42 123.03 1580.293 119.55 L 1580.293 119.55 L 1580.293 119.55 Q 1586.165 116.07 1589.428 109.835 L 1589.428 109.835 L 1589.428 109.835 Q 1592.69 103.6 1592.69 95.77 L 1592.69 95.77 L 1592.69 95.77 Q 1592.69 88.085 1589.355 81.85 L 1589.355 81.85 L 1589.355 81.85 Q 1586.02 75.615 1580.22 72.135 L 1580.22 72.135 L 1580.22 72.135 Q 1574.42 68.655 1567.025 68.655 L 1567.025 68.655 L 1567.025 68.655 Q 1559.63 68.655 1553.758 72.135 L 1553.758 72.135 L 1553.758 72.135 Q 1547.885 75.615 1544.55 81.85 L 1544.55 81.85 L 1544.55 81.85 Q 1541.215 88.085 1541.215 95.77 L 1541.215 95.77 L 1541.215 95.77 Q 1541.215 103.745 1544.55 109.908 L 1544.55 109.908 L 1544.55 109.908 Q 1547.885 116.07 1553.758 119.55 L 1553.758 119.55 L 1553.758 119.55 Q 1559.63 123.03 1567.025 123.03 L 1567.025 123.03 Z  M 410.65 32.84 L 410.65 32.84 Q 429.645 32.84 440.013 41.83 L 440.013 41.83 L 440.013 41.83 Q 450.38 50.82 450.38 67.06 L 450.38 67.06 L 450.38 67.06 Q 450.38 84.025 439.94 93.378 L 439.94 93.378 L 439.94 93.378 Q 429.5 102.73 410.65 102.73 L 410.65 102.73 L 385.42 102.73 L 385.42 134.34 L 371.5 134.34 L 371.5 32.84 L 410.65 32.84 Z  M 410.07 90.115 L 410.07 90.115 Q 423.12 90.115 430.08 84.388 L 430.08 84.388 L 430.08 84.388 Q 437.04 78.66 437.04 67.495 L 437.04 67.495 L 437.04 67.495 Q 437.04 56.62 430.08 51.038 L 430.08 51.038 L 430.08 51.038 Q 423.12 45.455 410.07 45.455 L 410.07 45.455 L 385.42 45.6 L 385.42 90.115 L 410.07 90.115 Z  M 467.49 134.34 L 467.49 57.635 L 480.975 57.635 L 480.975 134.34 L 467.49 134.34 Z  M 474.16 27.04 L 474.16 27.04 Q 477.785 27.04 480.178 29.505 L 480.178 29.505 L 480.178 29.505 Q 482.57 31.97 482.57 35.74 L 482.57 35.74 L 482.57 35.74 Q 482.57 39.51 480.178 41.975 L 480.178 41.975 L 480.178 41.975 Q 477.785 44.44 474.16 44.44 L 474.16 44.44 L 474.16 44.44 Q 470.535 44.44 468.143 41.975 L 468.143 41.975 L 468.143 41.975 Q 465.75 39.51 465.75 35.74 L 465.75 35.74 L 465.75 35.74 Q 465.75 31.97 468.143 29.505 L 468.143 29.505 L 468.143 29.505 Q 470.535 27.04 474.16 27.04 L 474.16 27.04 Z  M 524.475 134.34 L 494.46 57.635 L 508.815 57.635 L 531.87 121 L 554.78 57.635 L 568.41 57.635 L 538.54 134.34 L 524.475 134.34 Z  M 613.07 57.2 L 613.07 57.2 Q 624.525 57.2 633.443 62.13 L 633.443 62.13 L 633.443 62.13 Q 642.36 67.06 647.363 75.833 L 647.363 75.833 L 647.363 75.833 Q 652.365 84.605 652.365 95.915 L 652.365 95.915 L 652.365 95.915 Q 652.365 107.225 647.363 116.07 L 647.363 116.07 L 647.363 116.07 Q 642.36 124.915 633.443 129.845 L 633.443 129.845 L 633.443 129.845 Q 624.525 134.775 613.07 134.775 L 613.07 134.775 L 613.07 134.775 Q 601.47 134.775 592.553 129.845 L 592.553 129.845 L 592.553 129.845 Q 583.635 124.915 578.632 116.143 L 578.632 116.143 L 578.632 116.143 Q 573.63 107.37 573.63 95.915 L 573.63 95.915 L 573.63 95.915 Q 573.63 84.605 578.632 75.833 L 578.632 75.833 L 578.632 75.833 Q 583.635 67.06 592.553 62.13 L 592.553 62.13 L 592.553 62.13 Q 601.47 57.2 613.07 57.2 L 613.07 57.2 Z  M 613.07 68.945 L 613.07 68.945 Q 605.53 68.945 599.658 72.425 L 599.658 72.425 L 599.658 72.425 Q 593.785 75.905 590.523 82.068 L 590.523 82.068 L 590.523 82.068 Q 587.26 88.23 587.26 96.06 L 587.26 96.06 L 587.26 96.06 Q 587.26 104.035 590.523 110.27 L 590.523 110.27 L 590.523 110.27 Q 593.785 116.505 599.658 119.913 L 599.658 119.913 L 599.658 119.913 Q 605.53 123.32 613.07 123.32 L 613.07 123.32 L 613.07 123.32 Q 620.465 123.32 626.338 119.913 L 626.338 119.913 L 626.338 119.913 Q 632.21 116.505 635.473 110.27 L 635.473 110.27 L 635.473 110.27 Q 638.735 104.035 638.735 96.06 L 638.735 96.06 L 638.735 96.06 Q 638.735 88.23 635.473 82.068 L 635.473 82.068 L 635.473 82.068 Q 632.21 75.905 626.338 72.425 L 626.338 72.425 L 626.338 72.425 Q 620.465 68.945 613.07 68.945 L 613.07 68.945 Z  M 708.77 118.825 L 712.395 129.265 L 712.395 129.265 Q 703.55 134.92 694.415 134.92 L 694.415 134.92 L 694.415 134.92 Q 685.28 134.92 679.625 129.483 L 679.625 129.483 L 679.625 129.483 Q 673.97 124.045 673.97 113.025 L 673.97 113.025 L 673.97 70.54 L 663.095 70.54 L 663.095 60.245 L 673.97 60.245 L 673.97 39.655 L 687.6 39.655 L 687.6 60.245 L 711.09 60.245 L 711.09 70.54 L 687.6 70.54 L 687.6 110.56 L 687.6 110.56 Q 687.6 116.94 689.92 119.695 L 689.92 119.695 L 689.92 119.695 Q 692.24 122.45 696.88 122.45 L 696.88 122.45 L 696.88 122.45 Q 702.39 122.45 708.77 118.825 L 708.77 118.825 Z  M 788.955 134.34 L 775.615 134.34 L 775.615 123.61 L 775.615 123.61 Q 767.06 134.92 748.79 134.92 L 748.79 134.92 L 748.79 134.92 Q 740.815 134.92 734.797 131.875 L 734.797 131.875 L 734.797 131.875 Q 728.78 128.83 725.517 123.465 L 725.517 123.465 L 725.517 123.465 Q 722.255 118.1 722.255 111.43 L 722.255 111.43 L 722.255 111.43 Q 722.255 101.135 729.868 95.118 L 729.868 95.118 L 729.868 95.118 Q 737.48 89.1 751.11 88.955 L 751.11 88.955 L 775.47 88.955 L 775.47 85.33 L 775.47 85.33 Q 775.47 77.21 770.468 72.788 L 770.468 72.788 L 770.468 72.788 Q 765.465 68.365 755.895 68.365 L 755.895 68.365 L 755.895 68.365 Q 744.295 68.365 732.26 76.63 L 732.26 76.63 L 726.605 67.35 L 726.605 67.35 Q 734.87 61.985 741.902 59.593 L 741.902 59.593 L 741.902 59.593 Q 748.935 57.2 758.65 57.2 L 758.65 57.2 L 758.65 57.2 Q 773.005 57.2 780.835 64.233 L 780.835 64.233 L 780.835 64.233 Q 788.665 71.265 788.81 83.88 L 788.81 83.88 L 788.955 134.34 Z  M 751.545 123.755 L 751.545 123.755 Q 760.97 123.755 767.568 119.188 L 767.568 119.188 L 767.568 119.188 Q 774.165 114.62 775.47 107.08 L 775.47 107.08 L 775.47 99.395 L 752.995 99.395 L 752.995 99.395 Q 743.86 99.395 739.438 102.15 L 739.438 102.15 L 739.438 102.15 Q 735.015 104.905 735.015 110.85 L 735.015 110.85 L 735.015 110.85 Q 735.015 116.795 739.51 120.275 L 739.51 120.275 L 739.51 120.275 Q 744.005 123.755 751.545 123.755 L 751.545 123.755 Z  M 813.75 134.34 L 813.75 26.75 L 827.235 26.75 L 827.235 134.34 L 813.75 134.34 Z " fill-rule="evenodd" fill="rgb(0,0,0)"/><path d=" M 1061.672 230.285 L 1061.672 230.285 Q 1055.084 226.259 1047.703 223.88 L 1047.703 223.88 L 1047.703 223.88 Q 1040.322 221.501 1035.076 221.501 L 1035.076 221.501 L 1035.076 221.501 Q 1030.074 221.501 1027.146 223.331 L 1027.146 223.331 L 1027.146 223.331 Q 1024.218 225.161 1024.218 228.699 L 1024.218 228.699 L 1024.218 228.699 Q 1024.218 233.213 1028.427 235.592 L 1028.427 235.592 L 1028.427 235.592 Q 1032.636 237.971 1041.42 240.533 L 1041.42 240.533 L 1041.42 240.533 Q 1050.204 243.095 1055.877 245.657 L 1055.877 245.657 L 1055.877 245.657 Q 1061.55 248.219 1065.576 253.343 L 1065.576 253.343 L 1065.576 253.343 Q 1069.602 258.467 1069.602 266.885 L 1069.602 266.885 L 1069.602 266.885 Q 1069.602 275.059 1065.271 280.976 L 1065.271 280.976 L 1065.271 280.976 Q 1060.94 286.893 1053.376 289.943 L 1053.376 289.943 L 1053.376 289.943 Q 1045.812 292.993 1036.174 292.993 L 1036.174 292.993 L 1036.174 292.993 Q 1025.804 292.993 1015.8 289.333 L 1015.8 289.333 L 1015.8 289.333 Q 1005.796 285.673 998.476 279.329 L 998.476 279.329 L 1006.162 263.591 L 1006.162 263.591 Q 1012.628 269.447 1021.046 272.985 L 1021.046 272.985 L 1021.046 272.985 Q 1029.464 276.523 1036.418 276.523 L 1036.418 276.523 L 1036.418 276.523 Q 1042.396 276.523 1045.751 274.327 L 1045.751 274.327 L 1045.751 274.327 Q 1049.106 272.131 1049.106 267.983 L 1049.106 267.983 L 1049.106 267.983 Q 1049.106 264.689 1046.849 262.554 L 1046.849 262.554 L 1046.849 262.554 Q 1044.592 260.419 1041.115 259.077 L 1041.115 259.077 L 1041.115 259.077 Q 1037.638 257.735 1031.538 256.027 L 1031.538 256.027 L 1031.538 256.027 Q 1022.754 253.587 1017.203 251.147 L 1017.203 251.147 L 1017.203 251.147 Q 1011.652 248.707 1007.626 243.705 L 1007.626 243.705 L 1007.626 243.705 Q 1003.6 238.703 1003.6 230.407 L 1003.6 230.407 L 1003.6 230.407 Q 1003.6 222.721 1007.748 216.926 L 1007.748 216.926 L 1007.748 216.926 Q 1011.896 211.131 1019.338 208.02 L 1019.338 208.02 L 1019.338 208.02 Q 1026.78 204.909 1036.662 204.909 L 1036.662 204.909 L 1036.662 204.909 Q 1045.446 204.909 1053.986 207.471 L 1053.986 207.471 L 1053.986 207.471 Q 1062.526 210.033 1069.114 214.303 L 1069.114 214.303 L 1061.672 230.285 Z  M 1110.96 225.649 L 1110.96 225.649 Q 1126.82 225.649 1135.055 234.799 L 1135.055 234.799 L 1135.055 234.799 Q 1143.29 243.949 1143.29 260.297 L 1143.29 260.297 L 1143.29 260.297 Q 1143.29 263.225 1143.168 264.811 L 1143.168 264.811 L 1096.076 264.811 L 1096.076 264.811 Q 1097.662 271.033 1102.176 274.51 L 1102.176 274.51 L 1102.176 274.51 Q 1106.69 277.987 1113.034 277.987 L 1113.034 277.987 L 1113.034 277.987 Q 1117.67 277.987 1121.94 276.218 L 1121.94 276.218 L 1121.94 276.218 Q 1126.21 274.449 1129.626 271.033 L 1129.626 271.033 L 1139.508 281.037 L 1139.508 281.037 Q 1134.506 286.649 1127.369 289.638 L 1127.369 289.638 L 1127.369 289.638 Q 1120.232 292.627 1111.448 292.627 L 1111.448 292.627 L 1111.448 292.627 Q 1101.078 292.627 1093.331 288.479 L 1093.331 288.479 L 1093.331 288.479 Q 1085.584 284.331 1081.375 276.767 L 1081.375 276.767 L 1081.375 276.767 Q 1077.166 269.203 1077.166 259.321 L 1077.166 259.321 L 1077.166 259.321 Q 1077.166 249.317 1081.436 241.692 L 1081.436 241.692 L 1081.436 241.692 Q 1085.706 234.067 1093.392 229.858 L 1093.392 229.858 L 1093.392 229.858 Q 1101.078 225.649 1110.96 225.649 L 1110.96 225.649 Z  M 1095.71 253.709 L 1125.6 253.709 L 1125.6 253.709 Q 1125.356 247.243 1121.452 243.339 L 1121.452 243.339 L 1121.452 243.339 Q 1117.548 239.435 1111.082 239.435 L 1111.082 239.435 L 1111.082 239.435 Q 1104.982 239.435 1100.895 243.278 L 1100.895 243.278 L 1100.895 243.278 Q 1096.808 247.121 1095.71 253.709 L 1095.71 253.709 Z  M 1174.4 238.093 L 1174.4 238.093 Q 1177.816 231.993 1183.306 228.821 L 1183.306 228.821 L 1183.306 228.821 Q 1188.796 225.649 1196.116 225.527 L 1196.116 225.527 L 1196.116 243.217 L 1196.116 243.217 Q 1195.14 243.095 1193.188 243.095 L 1193.188 243.095 L 1193.188 243.095 Q 1184.526 243.095 1179.463 247.792 L 1179.463 247.792 L 1179.463 247.792 Q 1174.4 252.489 1174.4 260.297 L 1174.4 260.297 L 1174.4 291.895 L 1155.612 291.895 L 1155.612 226.259 L 1174.4 226.259 L 1174.4 238.093 Z  M 1221.858 291.895 L 1196.97 226.381 L 1216.368 226.259 L 1231.862 274.083 L 1247.234 226.259 L 1265.9 226.259 L 1241.134 291.895 L 1221.858 291.895 Z  M 1274.196 291.895 L 1274.196 226.259 L 1292.984 226.259 L 1292.984 291.895 L 1274.196 291.895 Z  M 1283.468 197.101 L 1283.468 197.101 Q 1287.982 197.101 1290.849 200.029 L 1290.849 200.029 L 1290.849 200.029 Q 1293.716 202.957 1293.716 207.593 L 1293.716 207.593 L 1293.716 207.593 Q 1293.716 212.229 1290.849 215.157 L 1290.849 215.157 L 1290.849 215.157 Q 1287.982 218.085 1283.468 218.085 L 1283.468 218.085 L 1283.468 218.085 Q 1279.076 218.085 1276.209 215.096 L 1276.209 215.096 L 1276.209 215.096 Q 1273.342 212.107 1273.342 207.593 L 1273.342 207.593 L 1273.342 207.593 Q 1273.342 202.957 1276.209 200.029 L 1276.209 200.029 L 1276.209 200.029 Q 1279.076 197.101 1283.468 197.101 L 1283.468 197.101 Z  M 1354.838 248.585 L 1354.838 248.585 Q 1349.226 241.631 1340.198 241.631 L 1340.198 241.631 L 1340.198 241.631 Q 1333.122 241.631 1328.669 246.45 L 1328.669 246.45 L 1328.669 246.45 Q 1324.216 251.269 1324.216 259.199 L 1324.216 259.199 L 1324.216 259.199 Q 1324.216 267.129 1328.608 272.07 L 1328.608 272.07 L 1328.608 272.07 Q 1333 277.011 1339.832 277.011 L 1339.832 277.011 L 1339.832 277.011 Q 1350.08 277.011 1355.082 269.325 L 1355.082 269.325 L 1368.014 278.109 L 1368.014 278.109 Q 1363.866 285.063 1356.363 288.845 L 1356.363 288.845 L 1356.363 288.845 Q 1348.86 292.627 1338.856 292.627 L 1338.856 292.627 L 1338.856 292.627 Q 1328.974 292.627 1321.41 288.479 L 1321.41 288.479 L 1321.41 288.479 Q 1313.846 284.331 1309.637 276.767 L 1309.637 276.767 L 1309.637 276.767 Q 1305.428 269.203 1305.428 259.321 L 1305.428 259.321 L 1305.428 259.321 Q 1305.428 249.317 1309.637 241.692 L 1309.637 241.692 L 1309.637 241.692 Q 1313.846 234.067 1321.471 229.858 L 1321.471 229.858 L 1321.471 229.858 Q 1329.096 225.649 1339.1 225.649 L 1339.1 225.649 L 1339.1 225.649 Q 1348.494 225.649 1355.814 229.248 L 1355.814 229.248 L 1355.814 229.248 Q 1363.134 232.847 1367.526 239.435 L 1367.526 239.435 L 1354.838 248.585 Z  M 1407.908 225.649 L 1407.908 225.649 Q 1423.768 225.649 1432.003 234.799 L 1432.003 234.799 L 1432.003 234.799 Q 1440.238 243.949 1440.238 260.297 L 1440.238 260.297 L 1440.238 260.297 Q 1440.238 263.225 1440.116 264.811 L 1440.116 264.811 L 1393.024 264.811 L 1393.024 264.811 Q 1394.61 271.033 1399.124 274.51 L 1399.124 274.51 L 1399.124 274.51 Q 1403.638 277.987 1409.982 277.987 L 1409.982 277.987 L 1409.982 277.987 Q 1414.618 277.987 1418.888 276.218 L 1418.888 276.218 L 1418.888 276.218 Q 1423.158 274.449 1426.574 271.033 L 1426.574 271.033 L 1436.456 281.037 L 1436.456 281.037 Q 1431.454 286.649 1424.317 289.638 L 1424.317 289.638 L 1424.317 289.638 Q 1417.18 292.627 1408.396 292.627 L 1408.396 292.627 L 1408.396 292.627 Q 1398.026 292.627 1390.279 288.479 L 1390.279 288.479 L 1390.279 288.479 Q 1382.532 284.331 1378.323 276.767 L 1378.323 276.767 L 1378.323 276.767 Q 1374.114 269.203 1374.114 259.321 L 1374.114 259.321 L 1374.114 259.321 Q 1374.114 249.317 1378.384 241.692 L 1378.384 241.692 L 1378.384 241.692 Q 1382.654 234.067 1390.34 229.858 L 1390.34 229.858 L 1390.34 229.858 Q 1398.026 225.649 1407.908 225.649 L 1407.908 225.649 Z  M 1392.658 253.709 L 1422.548 253.709 L 1422.548 253.709 Q 1422.304 247.243 1418.4 243.339 L 1418.4 243.339 L 1418.4 243.339 Q 1414.496 239.435 1408.03 239.435 L 1408.03 239.435 L 1408.03 239.435 Q 1401.93 239.435 1397.843 243.278 L 1397.843 243.278 L 1397.843 243.278 Q 1393.756 247.121 1392.658 253.709 L 1392.658 253.709 Z  M 428.248 233.213 L 428.248 233.213 Q 423.856 227.967 417.939 224.978 L 417.939 224.978 L 417.939 224.978 Q 412.022 221.989 406.044 221.989 L 406.044 221.989 L 406.044 221.989 Q 398.846 221.989 392.868 225.527 L 392.868 225.527 L 392.868 225.527 Q 386.89 229.065 383.474 235.165 L 383.474 235.165 L 383.474 235.165 Q 380.058 241.265 380.058 248.707 L 380.058 248.707 L 380.058 248.707 Q 380.058 256.149 383.474 262.31 L 383.474 262.31 L 383.474 262.31 Q 386.89 268.471 392.868 272.07 L 392.868 272.07 L 392.868 272.07 Q 398.846 275.669 406.044 275.669 L 406.044 275.669 L 406.044 275.669 Q 411.778 275.669 417.695 272.924 L 417.695 272.924 L 417.695 272.924 Q 423.612 270.179 428.248 265.543 L 428.248 265.543 L 439.594 277.865 L 439.594 277.865 Q 432.762 284.941 423.551 289.089 L 423.551 289.089 L 423.551 289.089 Q 414.34 293.237 405.068 293.237 L 405.068 293.237 L 405.068 293.237 Q 392.502 293.237 382.254 287.442 L 382.254 287.442 L 382.254 287.442 Q 372.006 281.647 366.15 271.521 L 366.15 271.521 L 366.15 271.521 Q 360.294 261.395 360.294 248.951 L 360.294 248.951 L 360.294 248.951 Q 360.294 236.629 366.272 226.625 L 366.272 226.625 L 366.272 226.625 Q 372.25 216.621 382.681 210.887 L 382.681 210.887 L 382.681 210.887 Q 393.112 205.153 405.8 205.153 L 405.8 205.153 L 405.8 205.153 Q 415.072 205.153 424.1 208.996 L 424.1 208.996 L 424.1 208.996 Q 433.128 212.839 439.472 219.427 L 439.472 219.427 L 428.248 233.213 Z  M 480.342 225.649 L 480.342 225.649 Q 490.712 225.649 498.703 229.797 L 498.703 229.797 L 498.703 229.797 Q 506.694 233.945 511.086 241.509 L 511.086 241.509 L 511.086 241.509 Q 515.478 249.073 515.478 259.077 L 515.478 259.077 L 515.478 259.077 Q 515.478 268.959 511.086 276.584 L 511.086 276.584 L 511.086 276.584 Q 506.694 284.209 498.703 288.418 L 498.703 288.418 L 498.703 288.418 Q 490.712 292.627 480.342 292.627 L 480.342 292.627 L 480.342 292.627 Q 469.85 292.627 461.859 288.418 L 461.859 288.418 L 461.859 288.418 Q 453.868 284.209 449.476 276.584 L 449.476 276.584 L 449.476 276.584 Q 445.084 268.959 445.084 259.077 L 445.084 259.077 L 445.084 259.077 Q 445.084 249.073 449.476 241.509 L 449.476 241.509 L 449.476 241.509 Q 453.868 233.945 461.859 229.797 L 461.859 229.797 L 461.859 229.797 Q 469.85 225.649 480.342 225.649 L 480.342 225.649 Z  M 480.342 241.265 L 480.342 241.265 Q 473.022 241.265 468.447 246.267 L 468.447 246.267 L 468.447 246.267 Q 463.872 251.269 463.872 259.321 L 463.872 259.321 L 463.872 259.321 Q 463.872 267.373 468.447 272.375 L 468.447 272.375 L 468.447 272.375 Q 473.022 277.377 480.342 277.377 L 480.342 277.377 L 480.342 277.377 Q 487.54 277.377 492.115 272.375 L 492.115 272.375 L 492.115 272.375 Q 496.69 267.373 496.69 259.321 L 496.69 259.321 L 496.69 259.321 Q 496.69 251.269 492.115 246.267 L 492.115 246.267 L 492.115 246.267 Q 487.54 241.265 480.342 241.265 L 480.342 241.265 Z  M 569.402 225.527 L 569.402 225.527 Q 580.382 225.527 586.909 232.359 L 586.909 232.359 L 586.909 232.359 Q 593.436 239.191 593.436 250.659 L 593.436 250.659 L 593.436 291.895 L 574.648 291.895 L 574.648 256.149 L 574.648 256.149 Q 574.648 249.927 571.171 246.328 L 571.171 246.328 L 571.171 246.328 Q 567.694 242.729 561.716 242.729 L 561.716 242.729 L 561.716 242.729 Q 554.762 242.851 550.736 247.548 L 550.736 247.548 L 550.736 247.548 Q 546.71 252.245 546.71 259.565 L 546.71 259.565 L 546.71 291.895 L 527.922 291.895 L 527.922 226.259 L 546.71 226.259 L 546.71 237.727 L 546.71 237.727 Q 553.542 225.771 569.402 225.527 L 569.402 225.527 Z  M 646.384 274.449 L 650.288 288.235 L 650.288 288.235 Q 646.628 290.431 642.175 291.59 L 642.175 291.59 L 642.175 291.59 Q 637.722 292.749 633.208 292.749 L 633.208 292.749 L 633.208 292.749 Q 624.058 292.749 618.324 287.503 L 618.324 287.503 L 618.324 287.503 Q 612.59 282.257 612.59 272.497 L 612.59 272.497 L 612.59 242.119 L 603.44 242.119 L 603.44 229.187 L 612.59 229.187 L 612.59 211.131 L 631.256 211.131 L 631.256 229.187 L 649.068 229.187 L 649.068 242.241 L 631.256 242.241 L 631.256 269.325 L 631.256 269.325 Q 631.256 276.889 637.234 276.889 L 637.234 276.889 L 637.234 276.889 Q 641.382 276.889 646.384 274.449 L 646.384 274.449 Z  M 718.12 291.895 L 699.698 291.895 L 699.698 284.209 L 699.698 284.209 Q 696.404 288.357 691.158 290.553 L 691.158 290.553 L 691.158 290.553 Q 685.912 292.749 679.08 292.749 L 679.08 292.749 L 679.08 292.749 Q 668.71 292.749 662.61 287.076 L 662.61 287.076 L 662.61 287.076 Q 656.51 281.403 656.51 272.253 L 656.51 272.253 L 656.51 272.253 Q 656.51 262.981 663.037 257.796 L 663.037 257.796 L 663.037 257.796 Q 669.564 252.611 681.52 252.489 L 681.52 252.489 L 699.576 252.489 L 699.576 251.269 L 699.576 251.269 Q 699.576 246.023 696.099 243.156 L 696.099 243.156 L 696.099 243.156 Q 692.622 240.289 685.912 240.289 L 685.912 240.289 L 685.912 240.289 Q 676.762 240.289 666.392 246.023 L 666.392 246.023 L 660.536 233.091 L 660.536 233.091 Q 668.344 229.187 675.176 227.357 L 675.176 227.357 L 675.176 227.357 Q 682.008 225.527 690.182 225.527 L 690.182 225.527 L 690.182 225.527 Q 703.358 225.527 710.617 231.749 L 710.617 231.749 L 710.617 231.749 Q 717.876 237.971 717.998 249.073 L 717.998 249.073 L 718.12 291.895 Z  M 684.326 279.329 L 684.326 279.329 Q 690.182 279.329 694.452 276.523 L 694.452 276.523 L 694.452 276.523 Q 698.722 273.717 699.576 269.447 L 699.576 269.447 L 699.576 263.591 L 684.814 263.591 L 684.814 263.591 Q 679.324 263.591 676.701 265.36 L 676.701 265.36 L 676.701 265.36 Q 674.078 267.129 674.078 271.033 L 674.078 271.033 L 674.078 271.033 Q 674.078 274.815 676.823 277.072 L 676.823 277.072 L 676.823 277.072 Q 679.568 279.329 684.326 279.329 L 684.326 279.329 Z  M 734.346 291.895 L 734.346 226.259 L 753.134 226.259 L 753.134 291.895 L 734.346 291.895 Z  M 743.618 197.101 L 743.618 197.101 Q 748.132 197.101 750.999 200.029 L 750.999 200.029 L 750.999 200.029 Q 753.866 202.957 753.866 207.593 L 753.866 207.593 L 753.866 207.593 Q 753.866 212.229 750.999 215.157 L 750.999 215.157 L 750.999 215.157 Q 748.132 218.085 743.618 218.085 L 743.618 218.085 L 743.618 218.085 Q 739.226 218.085 736.359 215.096 L 736.359 215.096 L 736.359 215.096 Q 733.492 212.107 733.492 207.593 L 733.492 207.593 L 733.492 207.593 Q 733.492 202.957 736.359 200.029 L 736.359 200.029 L 736.359 200.029 Q 739.226 197.101 743.618 197.101 L 743.618 197.101 Z  M 812.67 225.527 L 812.67 225.527 Q 823.65 225.527 830.177 232.359 L 830.177 232.359 L 830.177 232.359 Q 836.704 239.191 836.704 250.659 L 836.704 250.659 L 836.704 291.895 L 817.916 291.895 L 817.916 256.149 L 817.916 256.149 Q 817.916 249.927 814.439 246.328 L 814.439 246.328 L 814.439 246.328 Q 810.962 242.729 804.984 242.729 L 804.984 242.729 L 804.984 242.729 Q 798.03 242.851 794.004 247.548 L 794.004 247.548 L 794.004 247.548 Q 789.978 252.245 789.978 259.565 L 789.978 259.565 L 789.978 291.895 L 771.19 291.895 L 771.19 226.259 L 789.978 226.259 L 789.978 237.727 L 789.978 237.727 Q 796.81 225.771 812.67 225.527 L 812.67 225.527 Z  M 881.112 225.649 L 881.112 225.649 Q 896.972 225.649 905.207 234.799 L 905.207 234.799 L 905.207 234.799 Q 913.442 243.949 913.442 260.297 L 913.442 260.297 L 913.442 260.297 Q 913.442 263.225 913.32 264.811 L 913.32 264.811 L 866.228 264.811 L 866.228 264.811 Q 867.814 271.033 872.328 274.51 L 872.328 274.51 L 872.328 274.51 Q 876.842 277.987 883.186 277.987 L 883.186 277.987 L 883.186 277.987 Q 887.822 277.987 892.092 276.218 L 892.092 276.218 L 892.092 276.218 Q 896.362 274.449 899.778 271.033 L 899.778 271.033 L 909.66 281.037 L 909.66 281.037 Q 904.658 286.649 897.521 289.638 L 897.521 289.638 L 897.521 289.638 Q 890.384 292.627 881.6 292.627 L 881.6 292.627 L 881.6 292.627 Q 871.23 292.627 863.483 288.479 L 863.483 288.479 L 863.483 288.479 Q 855.736 284.331 851.527 276.767 L 851.527 276.767 L 851.527 276.767 Q 847.318 269.203 847.318 259.321 L 847.318 259.321 L 847.318 259.321 Q 847.318 249.317 851.588 241.692 L 851.588 241.692 L 851.588 241.692 Q 855.858 234.067 863.544 229.858 L 863.544 229.858 L 863.544 229.858 Q 871.23 225.649 881.112 225.649 L 881.112 225.649 Z  M 865.862 253.709 L 895.752 253.709 L 895.752 253.709 Q 895.508 247.243 891.604 243.339 L 891.604 243.339 L 891.604 243.339 Q 887.7 239.435 881.234 239.435 L 881.234 239.435 L 881.234 239.435 Q 875.134 239.435 871.047 243.278 L 871.047 243.278 L 871.047 243.278 Q 866.96 247.121 865.862 253.709 L 865.862 253.709 Z  M 944.552 238.093 L 944.552 238.093 Q 947.968 231.993 953.458 228.821 L 953.458 228.821 L 953.458 228.821 Q 958.948 225.649 966.268 225.527 L 966.268 225.527 L 966.268 243.217 L 966.268 243.217 Q 965.292 243.095 963.34 243.095 L 963.34 243.095 L 963.34 243.095 Q 954.678 243.095 949.615 247.792 L 949.615 247.792 L 949.615 247.792 Q 944.552 252.489 944.552 260.297 L 944.552 260.297 L 944.552 291.895 L 925.764 291.895 L 925.764 226.259 L 944.552 226.259 L 944.552 238.093 Z " fill-rule="evenodd" fill="rgb(0,0,0)"/></g></svg>